<svg width="30" height="22" viewBox="0 0 30 22" fill="none" xmlns="http://www.w3.org/2000/svg">
<path d="M0.565811 7.51245C0.338148 7.34266 -0.000429153 7.5015 -0.000429153 7.76988V18.9707C-0.000429153 20.4222 1.25464 21.5998 2.80158 21.5998H27.0857C28.6326 21.5998 29.8877 20.4222 29.8877 18.9707V7.77536C29.8877 7.5015 29.555 7.34814 29.3215 7.51793C28.0139 8.47096 26.2801 9.68142 20.3258 13.74C19.0941 14.5835 17.016 16.3581 14.9436 16.3471C12.8596 16.3636 10.7406 14.5506 9.5556 13.74C3.60132 9.68142 1.87342 8.46548 0.565811 7.51245ZM14.9436 14.589C13.5893 14.6109 11.6396 12.9896 10.6589 12.3214C2.9125 7.04689 2.32291 6.58681 0.536623 5.27228C0.198048 5.02581 -0.000429153 4.64241 -0.000429153 4.2371V3.19643C-0.000429153 1.74498 1.25464 0.567383 2.80158 0.567383H27.0857C28.6326 0.567383 29.8877 1.74498 29.8877 3.19643V4.2371C29.8877 4.64241 29.6892 5.02033 29.3506 5.27228C27.5644 6.58133 26.9748 7.04689 19.2284 12.3214C18.2477 12.9896 16.2979 14.6109 14.9436 14.589Z" fill="#0C48C6"/>
</svg>
