<svg width="43" height="43" viewBox="0 0 43 43" fill="none" xmlns="http://www.w3.org/2000/svg">
<path d="M39.3402 17.3831C39.3402 7.79785 31.5423 0 21.957 0C12.3721 0 4.57422 7.79785 4.57422 17.3831C4.57422 26.9681 12.3721 34.766 21.957 34.766C31.5423 34.766 39.3402 26.9681 39.3402 17.3831ZM18.8584 24.7983L12.9237 18.8633L14.7226 17.0647L18.8584 21.2007L29.1918 10.8673L30.9907 12.6659L18.8584 24.7983Z" fill="#0C48C6"/>
<path d="M5.44051 29.2764L0 36.7973L8.04364 35.3756L9.5437 42.9998L14.6383 35.957C10.9396 34.6008 7.75425 32.2606 5.44051 29.2764Z" fill="#0C48C6"/>
<path d="M37.5591 29.2764C35.2454 32.2606 32.0601 34.6008 28.3613 35.957L33.4559 42.9998L34.956 35.3756L42.9996 36.7973L37.5591 29.2764Z" fill="#0C48C6"/>
</svg>
