<svg width="36" height="43" viewBox="0 0 36 43" fill="none" xmlns="http://www.w3.org/2000/svg">
<path d="M34.6652 9.86846L18.4157 0.201437C17.9641 -0.0671455 17.4017 -0.0671455 16.9501 0.201437L0.700514 9.86846C0.266231 10.1269 0 10.595 0 11.1003V16.6187C0 28.2416 6.71539 38.8574 17.1653 42.9033C17.498 43.0321 17.8673 43.0323 18.2003 42.9033C28.6249 38.8675 35.3656 28.2747 35.3656 16.6187V11.1003C35.3657 10.5949 35.0995 10.1269 34.6652 9.86846ZM24.7641 18.2792L15.7808 27.2626C15.221 27.8224 14.3135 27.8224 13.7537 27.2626L10.6009 24.11C10.0412 23.5503 10.0412 22.6427 10.6009 22.0829C11.1607 21.5232 12.0683 21.5232 12.628 22.0829L14.7671 24.2221L22.7371 16.2521C23.2968 15.6924 24.2044 15.6924 24.7641 16.2521C25.324 16.812 25.324 17.7195 24.7641 18.2792Z" fill="#0C48C6"/>
</svg>
