<svg width="23" height="33" viewBox="0 0 23 33" fill="none" xmlns="http://www.w3.org/2000/svg">
<path d="M13.068 31.4544C21.4451 18.2474 23 16.892 23 12.0383C23 5.3897 18.044 0 11.9303 0C5.81669 0 0.860649 5.3897 0.860649 12.0383C0.860649 16.892 2.41559 18.2474 10.7927 31.4544C11.3424 32.318 12.5183 32.3179 13.068 31.4544ZM11.9303 17.0542C9.38297 17.0542 7.31796 14.8085 7.31796 12.0383C7.31796 9.26803 9.38297 7.02232 11.9303 7.02232C14.4777 7.02232 16.5427 9.26803 16.5427 12.0383C16.5427 14.8085 14.4777 17.0542 11.9303 17.0542Z" fill="#0C48C6"/>
</svg>
