<svg width="28" height="24" viewBox="0 0 28 24" fill="none" xmlns="http://www.w3.org/2000/svg">
<path d="M14 0C10.6172 0 7.875 2.64422 7.875 5.90625C7.875 8.54344 11.8781 13.35 13.4118 15.0947C13.7224 15.4481 14.2781 15.4481 14.5882 15.0947C16.1219 13.35 20.125 8.54344 20.125 5.90625C20.125 2.64422 17.3828 0 14 0ZM14 7.875C12.8722 7.875 11.9583 6.99375 11.9583 5.90625C11.9583 4.81875 12.8722 3.9375 14 3.9375C15.1278 3.9375 16.0417 4.81875 16.0417 5.90625C16.0417 6.99375 15.1278 7.875 14 7.875ZM0.978056 10.1227C0.689392 10.234 0.441938 10.4262 0.267609 10.6744C0.0932792 10.9226 6.91351e-05 11.2155 0 11.5153L0 23.2491C0 23.7797 0.555625 24.1425 1.06653 23.9456L7.77778 21V10.0744C7.34806 9.32531 6.9966 8.59594 6.74479 7.89844L0.978056 10.1227ZM14 16.8595C13.316 16.8595 12.669 16.5698 12.2252 16.0645C11.2695 14.977 10.2531 13.7386 9.33333 12.4683V20.9995L18.6667 23.9995V12.4688C17.7469 13.7386 16.731 14.9775 15.7748 16.065C15.331 16.5698 14.684 16.8595 14 16.8595ZM26.9335 7.55438L20.2222 10.5V24L27.0219 21.3773C27.3106 21.2661 27.5581 21.0739 27.7325 20.8257C27.9068 20.5774 28 20.2845 28 19.9847V8.25094C28 7.72031 27.4444 7.3575 26.9335 7.55438Z" fill="#0C48C6"/>
</svg>
