<svg width="44" height="44" viewBox="0 0 44 44" fill="none" xmlns="http://www.w3.org/2000/svg">
<path d="M1.46181 16.2986C5.36422 18.6191 14.956 24.3132 19.7452 27.0588C20.3318 27.3954 20.9973 27.5733 21.6647 27.5733C22.3321 27.5733 22.9976 27.3954 23.5862 27.0579C28.3734 24.3132 37.9652 18.6192 41.8677 16.2977C42.7832 15.7514 43.3294 14.8129 43.3294 13.7867C43.3294 12.7606 42.7832 11.822 41.8677 11.2748C38.8518 9.48131 28.6253 3.40446 23.5842 0.51463C22.9914 0.17415 22.3335 -0.0027376 21.6643 3.20303e-05C21.0158 0.00270934 20.3565 0.174334 19.7356 0.520261C19.7356 0.520261 6.02589 8.57241 1.46366 11.2737C0.546264 11.8181 0 12.7567 0 13.7867C0 14.8128 0.546264 15.7514 1.46181 16.2986Z" fill="#0C48C6"/>
<path d="M41.9022 19.1798C41.5926 18.9884 41.2002 18.9845 40.8867 19.1731C35.584 22.3207 28.4503 26.5405 24.5651 28.7668C22.7918 29.7823 20.5356 29.7814 18.7661 28.7677C14.8445 26.5193 7.72423 22.3091 2.44272 19.1731C2.13114 18.9856 1.73684 18.9884 1.42525 19.1798C0.532785 19.727 0 20.656 0 21.6648C0 22.691 0.546264 23.6295 1.46172 24.1767C5.36422 26.4973 14.956 32.1913 19.7452 34.9369C20.3318 35.2735 20.9973 35.4514 21.6647 35.4514C22.3321 35.4514 22.9976 35.2735 23.5862 34.936C28.3734 32.1913 37.9652 26.4973 41.8677 24.1758C42.7832 23.6295 43.3294 22.691 43.3294 21.6648C43.3294 20.656 42.7966 19.727 41.9022 19.1798Z" fill="#0C48C6"/>
<path d="M41.9022 27.0579C41.5926 26.8684 41.2002 26.8626 40.8867 27.0511C35.584 30.1987 28.4503 34.4185 24.5651 36.6449C22.7918 37.6604 20.5356 37.6595 18.7661 36.6458C14.8445 34.3974 7.72423 30.1872 2.44272 27.0511C2.13114 26.8636 1.73684 26.8684 1.42525 27.0579C0.532785 27.6051 0 28.534 0 29.5428C0 30.5689 0.546264 31.5075 1.46172 32.0547C5.36422 34.3752 14.956 40.0693 19.7452 42.8149C20.3318 43.1516 20.9973 43.3295 21.6647 43.3295C22.3321 43.3295 22.9976 43.1516 23.5862 42.814C28.3734 40.0694 37.9652 34.3753 41.8677 32.0538C42.7832 31.5076 43.3294 30.569 43.3294 29.5429C43.3294 28.534 42.7966 27.6051 41.9022 27.0579Z" fill="#0C48C6"/>
</svg>
