<svg width="20" height="14" viewBox="0 0 20 14" fill="none" xmlns="http://www.w3.org/2000/svg">
<path fill-rule="evenodd" clip-rule="evenodd" d="M17.7183 0.428235C18.5699 0.658824 19.2413 1.33412 19.4705 2.19059C19.8963 3.75529 19.8799 7.01647 19.8799 7.01647C19.8799 7.01647 19.8799 10.2612 19.4705 11.8259C19.2413 12.6824 18.5699 13.3576 17.7183 13.5882C16.1627 14 9.93996 14 9.93996 14C9.93996 14 3.73362 14 2.16157 13.5718C1.31004 13.3412 0.638646 12.6659 0.409389 11.8094C0 10.2612 0 7 0 7C0 7 0 3.75529 0.409389 2.19059C0.638646 1.33412 1.32642 0.642353 2.16157 0.411765C3.71725 0 9.93996 0 9.93996 0C9.93996 0 16.1627 0 17.7183 0.428235ZM7.95898 4.00232L13.1337 6.99997L7.95898 9.99761V4.00232Z" fill="#C4C4C4"/>
</svg>
