<svg width="14" height="14" viewBox="0 0 14 14" fill="none" xmlns="http://www.w3.org/2000/svg">
<path d="M9.91656 1.16656C10.6895 1.16887 11.43 1.47692 11.9766 2.02345C12.5231 2.56997 12.8311 3.31054 12.8334 4.08344V9.91656C12.8311 10.6895 12.5231 11.43 11.9766 11.9766C11.43 12.5231 10.6895 12.8311 9.91656 12.8334H4.08344C3.31054 12.8311 2.56997 12.5231 2.02345 11.9766C1.47692 11.43 1.16887 10.6895 1.16656 9.91656V4.08344C1.16887 3.31054 1.47692 2.56997 2.02345 2.02345C2.56997 1.47692 3.31054 1.16887 4.08344 1.16656H9.91656ZM9.91656 0H4.08344C1.8375 0 0 1.8375 0 4.08344V9.91656C0 12.1625 1.8375 14 4.08344 14H9.91656C12.1625 14 14 12.1625 14 9.91656V4.08344C14 1.8375 12.1625 0 9.91656 0Z" fill="#C4C4C4"/>
<path d="M10.791 4.08337C10.618 4.08337 10.4488 4.03206 10.3049 3.93591C10.161 3.83976 10.0488 3.70311 9.98262 3.54322C9.91639 3.38334 9.89907 3.2074 9.93283 3.03767C9.96659 2.86794 10.0499 2.71203 10.1723 2.58966C10.2947 2.46728 10.4506 2.38395 10.6203 2.35019C10.79 2.31643 10.966 2.33375 11.1259 2.39998C11.2857 2.46621 11.4224 2.57836 11.5186 2.72225C11.6147 2.86614 11.666 3.03532 11.666 3.20837C11.6663 3.32335 11.6438 3.43724 11.5999 3.54351C11.556 3.64979 11.4916 3.74634 11.4103 3.82764C11.329 3.90894 11.2324 3.97339 11.1262 4.01727C11.0199 4.06116 10.906 4.08362 10.791 4.08337Z" fill="#C4C4C4"/>
<path d="M7 4.66656C7.46151 4.66656 7.91266 4.80342 8.29639 5.05982C8.68012 5.31622 8.9792 5.68065 9.15582 6.10703C9.33243 6.53341 9.37864 7.00259 9.2886 7.45523C9.19857 7.90787 8.97633 8.32365 8.64999 8.64999C8.32365 8.97633 7.90788 9.19857 7.45523 9.2886C7.00259 9.37864 6.53341 9.33243 6.10703 9.15582C5.68065 8.9792 5.31622 8.68012 5.05982 8.29639C4.80342 7.91266 4.66656 7.46151 4.66656 7C4.66723 6.38134 4.91328 5.7882 5.35074 5.35074C5.7882 4.91328 6.38134 4.66722 7 4.66656ZM7 3.5C6.30777 3.5 5.63108 3.70527 5.05551 4.08986C4.47993 4.47444 4.03133 5.02107 3.76642 5.66061C3.50152 6.30015 3.4322 7.00388 3.56725 7.68282C3.7023 8.36175 4.03564 8.98539 4.52513 9.47487C5.01461 9.96436 5.63825 10.2977 6.31719 10.4327C6.99612 10.5678 7.69985 10.4985 8.33939 10.2336C8.97894 9.96867 9.52556 9.52007 9.91015 8.9445C10.2947 8.36892 10.5 7.69223 10.5 7C10.5 6.07174 10.1313 5.1815 9.47488 4.52513C8.8185 3.86875 7.92826 3.5 7 3.5Z" fill="#C4C4C4"/>
</svg>
