<svg width="14" height="14" viewBox="0 0 14 14" fill="none" xmlns="http://www.w3.org/2000/svg">
<path d="M13.7814 0.219621C13.6791 0.117392 13.5495 0.0468971 13.4081 0.016624C13.2667 -0.0136492 13.1196 -0.00241028 12.9845 0.0489877L0.483276 4.78078H0.480776C0.336635 4.83622 0.213123 4.93481 0.127107 5.06307C0.0410906 5.19134 -0.00323498 5.34303 0.000183891 5.49743C0.00360276 5.65183 0.0545994 5.80141 0.146209 5.92574C0.237818 6.05008 0.365573 6.1431 0.512026 6.1921L0.524839 6.19617L4.81555 8.02844C4.89924 8.05385 4.98813 8.05686 5.07335 8.03717C5.15856 8.01749 5.23712 7.97579 5.30119 7.91625L12.1876 1.49937C12.2081 1.47885 12.2325 1.46257 12.2593 1.45147C12.2861 1.44036 12.3148 1.43465 12.3438 1.43465C12.3729 1.43465 12.4016 1.44036 12.4284 1.45147C12.4552 1.46257 12.4796 1.47885 12.5001 1.49937C12.5206 1.51989 12.5369 1.54425 12.548 1.57106C12.5591 1.59787 12.5648 1.62661 12.5648 1.65563C12.5648 1.68465 12.5591 1.71338 12.548 1.7402C12.5369 1.76701 12.5206 1.79137 12.5001 1.81189L6.08308 8.69535C6.02354 8.75942 5.98184 8.83798 5.96216 8.9232C5.94247 9.00842 5.94548 9.09731 5.97089 9.181L7.80374 13.4743C7.80561 13.4806 7.80749 13.4862 7.80968 13.4921C7.90968 13.7819 8.16281 13.9862 8.46875 14H8.5C8.65445 14.0009 8.8056 13.9553 8.93378 13.8691C9.06197 13.7829 9.16127 13.6602 9.21877 13.5168L13.9498 1.01872C14.0019 0.883491 14.0138 0.736052 13.9839 0.594236C13.954 0.452421 13.8836 0.322304 13.7814 0.219621Z" fill="#C4C4C4"/>
</svg>
