<svg width="24" height="27" viewBox="0 0 24 27" fill="none" xmlns="http://www.w3.org/2000/svg">
<path d="M22.5834 18.7733L17.4982 16.2826C17.2809 16.1768 17.0395 16.1545 16.8102 16.2191C16.5809 16.2837 16.3762 16.4316 16.2268 16.6407L13.9748 19.7852C10.4405 17.8807 7.59614 14.6301 5.92973 10.5908L8.6812 8.01706C8.86448 7.84669 8.99421 7.61272 9.05074 7.35056C9.10727 7.0884 9.08752 6.81232 8.99448 6.56414L6.8151 0.752454C6.713 0.484913 6.53241 0.266475 6.30447 0.134806C6.07654 0.00313683 5.81555 -0.0335108 5.5665 0.0311824L0.84451 1.27654C0.604401 1.33991 0.390175 1.49442 0.236797 1.71485C0.0834181 1.93528 -5.53113e-05 2.20862 2.74975e-08 2.49025C2.74975e-08 15.8 9.43944 26.5672 21.0673 26.5672C21.3138 26.5674 21.5531 26.4721 21.7461 26.2968C21.9391 26.1215 22.0743 25.8766 22.1298 25.6021L23.2195 20.2055C23.2757 19.9195 23.243 19.62 23.1269 19.3586C23.0108 19.0972 22.8186 18.8903 22.5834 18.7733Z" fill="#0C48C6"/>
</svg>
