<svg width="23" height="24" viewBox="0 0 23 24" fill="none" xmlns="http://www.w3.org/2000/svg">
<path d="M22.6408 0.928189C22.4728 0.760241 22.2599 0.644428 22.0276 0.594694C21.7953 0.544959 21.5536 0.563423 21.3316 0.647863L0.793953 8.42153H0.789846C0.553044 8.51261 0.35013 8.67457 0.208818 8.88529C0.067506 9.09601 -0.0053146 9.34522 0.000302107 9.59888C0.00591882 9.85253 0.089699 10.0983 0.2402 10.3025C0.390701 10.5068 0.600585 10.6596 0.841186 10.7401L0.862236 10.7468L7.91126 13.757C8.04875 13.7987 8.19478 13.8037 8.33478 13.7713C8.47478 13.739 8.60384 13.6705 8.70909 13.5726L20.0224 3.03064C20.0562 2.99692 20.0962 2.97018 20.1402 2.95194C20.1843 2.93369 20.2315 2.9243 20.2792 2.9243C20.3268 2.9243 20.374 2.93369 20.4181 2.95194C20.4621 2.97018 20.5021 2.99692 20.5359 3.03064C20.5696 3.06435 20.5963 3.10437 20.6145 3.14842C20.6328 3.19246 20.6422 3.23967 20.6422 3.28735C20.6422 3.33502 20.6328 3.38223 20.6145 3.42628C20.5963 3.47032 20.5696 3.51034 20.5359 3.54405L9.99363 14.8526C9.89581 14.9579 9.82732 15.0869 9.79497 15.2269C9.76263 15.3669 9.76758 15.513 9.80932 15.6505L12.8204 22.7038C12.8235 22.7141 12.8266 22.7233 12.8302 22.7331C12.9945 23.209 13.4103 23.5448 13.9129 23.5674H13.9643C14.218 23.5688 14.4663 23.4939 14.6769 23.3523C14.8875 23.2108 15.0507 23.0091 15.1451 22.7736L22.9175 2.241C23.0032 2.01883 23.0226 1.77661 22.9735 1.54363C22.9244 1.31065 22.8088 1.09688 22.6408 0.928189Z" fill="#0C48C6"/>
</svg>
